<?xml version="1.0" encoding="UTF-8"?>
<svg width="14px" height="16px" viewBox="0 0 14 16" version="1.1" xmlns="http://www.w3.org/2000/svg" xmlns:xlink="http://www.w3.org/1999/xlink">
    <!-- Generator: Sketch 64 (93537) - https://sketch.com -->
    <title>箭头</title>
    <desc>Created with Sketch.</desc>
    <g id="页面-1" stroke="none" stroke-width="1" fill="none" fill-rule="evenodd">
        <g id="iPhone-8" transform="translate(-329.000000, -301.000000)" fill="#ffffff" fill-rule="nonzero">
            <g id="箭头" transform="translate(325.000000, 299.000000)">
                <rect id="矩形" opacity="0" x="0" y="0" width="21" height="21"></rect>
                <path d="M10.0346107,2 L18,9.99997857 L16.2931521,11.7143653 L8.32774152,3.71434389 L10.0346107,2 Z M18,9.99997857 L10.0346107,18 L8.32772027,16.2857418 L16.2931521,8.28563468 L18,9.99997857 Z M9.23003274,8.78779956 C9.89657491,8.78779956 10.4369846,9.33047542 10.4369846,9.99997857 C10.4369846,10.669396 9.89657491,11.2120719 9.23003274,11.2120719 C8.56344807,11.2120719 8.02308084,10.669396 8.02308084,9.99997857 C8.02308084,9.33047542 8.56344807,8.78779956 9.23003274,8.78779956 Z M5.20688813,8.78779956 C5.87351532,8.78779956 6.41388253,9.33047542 6.41388253,9.99997857 C6.41388253,10.669396 5.87353657,11.2120719 5.20688813,11.2120719 C4.54034596,11.2120719 4,10.669396 4,9.99997857 C4,9.33047542 4.54034596,8.78779956 5.20688813,8.78779956 Z" id="形状"></path>
            </g>
        </g>
    </g>
</svg>