<?xml version="1.0" encoding="UTF-8"?>
<svg width="68px" height="41px" viewBox="0 0 68 41" version="1.1" xmlns="http://www.w3.org/2000/svg" xmlns:xlink="http://www.w3.org/1999/xlink">
    <!-- Generator: Sketch 64 (93537) - https://sketch.com -->
    <title>编组 7</title>
    <desc>Created with Sketch.</desc>
    <g id="页面-1" stroke="none" stroke-width="1" fill="none" fill-rule="evenodd">
        <g id="iPhone-8" transform="translate(-62.000000, -873.000000)">
            <g id="编组-7" transform="translate(62.000000, 873.000000)">
                <path d="M57.0688646,20.9929028 C56.4468209,20.9941474 53.4794641,20.9615914 50.9990276,19.7048126 C50.4936543,19.4929039 50.1673211,19.0001098 50.1724197,18.4566149 L50.1724197,17.3299944 C50.1724197,16.4443669 50.8284533,16.6068848 51.1069675,16.7125443 C52.1694354,17.1380648 52.8509387,17.4610044 54.15561,17.7188976 C58.0341733,18.5080363 59.7400479,17.4776427 60.1580507,17.2493578 C61.5495635,16.4308073 61.6596199,14.557823 60.7134918,13.5862529 C59.6043954,12.6650561 59.0753441,12.630273 55.0911558,11.385154 C54.6000687,11.2500172 50.4666031,9.95891372 50.4572113,5.89760396 C50.392659,2.93782621 53.1079575,0.00929434542 57.8139943,0.0334464852 C59.154844,0.0325486191 62.7274451,0.466257199 63.6945395,1.67069756 C63.8374012,1.88974627 63.9083691,2.14744293 63.8977867,2.40841483 L63.8977867,3.46802365 C63.8977867,3.93343665 63.7262204,4.16604489 63.3823602,4.16604489 C62.5664611,4.07597552 61.1188619,2.9954051 58.1801435,3.03942446 C57.4509535,3.00175909 53.9587783,3.13486524 54.1153971,5.65654557 C54.0698269,7.64370513 56.9314925,8.38882447 57.2584871,8.47476702 C61.1168115,9.62444521 62.4067999,9.81532677 63.9380658,11.5749875 C65.7517482,13.9068343 64.773873,16.6373446 64.3981996,17.3855427 C62.3791535,21.3147944 57.1578225,20.9951955 57.0688646,20.9929028 L57.0688646,20.9929028 Z M28.1283886,20.4028338 C27.2966821,20.4782956 26.9091697,19.8936635 26.7864806,19.3161059 L21.5164708,2.05940421 C21.4139543,1.768169 21.3461611,1.46730455 21.3134219,1.16021713 C21.2728122,0.896690529 21.4557545,0.650260733 21.7218345,0.60984415 C21.747166,0.605717336 21.4962982,0.60984415 24.0762749,0.60984415 C25.0056035,0.517744126 25.3081264,1.24183635 25.4044919,1.69683406 L29.184507,16.4569438 L32.6935479,1.69683406 C32.7495682,1.35928681 33.0046028,0.53667507 34.0481547,0.623665705 L35.8641519,0.623665705 C36.0937889,0.604734761 37.0396525,0.571196203 37.2057954,1.71039359 L40.7424164,16.6593543 L44.6441947,1.71039359 C44.6950561,1.48184666 44.9319684,0.518726701 45.9861027,0.623665705 L48.0728096,0.623665705 C48.1628257,0.60984415 48.7236241,0.538705725 48.6285814,1.52278728 C48.5830773,1.71674758 48.9893072,0.405665077 43.0461938,19.3296654 C42.924563,19.907223 42.5361907,20.4920516 41.7045504,20.4166553 L39.7265771,20.4166553 C38.5688681,20.5371845 38.4027252,19.4041446 38.3846691,19.2897729 L34.8756282,4.91758371 L31.4066681,19.2751653 C31.3898686,19.389537 31.2237257,20.5223149 30.0650246,20.4017857 L28.1283886,20.4017857 L28.1283886,20.4028338 Z M10.0409714,17.987075 C13.4726949,17.9379463 14.9257176,15.8939939 15.2569451,14.7937065 C15.5174032,13.7402551 15.4739494,13.0736763 15.4739494,11.9219674 C14.4506363,11.6786164 12.9777056,11.4135832 11.287506,11.411487 C9.68441239,11.2920059 6.75621025,12.001556 6.8706319,14.7926584 C6.73941078,16.5523846 8.0471907,18.0835639 10.0409714,17.987075 L10.0409714,17.987075 Z M19.1863036,14.5923441 C19.1101769,16.9663762 20.3080988,18.0175349 20.3375971,18.6850963 C20.3089586,18.9609378 20.1473793,19.205861 19.903853,19.3422424 L18.5492462,20.281322 C18.3737776,20.4030958 18.1673557,20.4729241 17.95346,20.4826844 C17.9079559,20.4806537 17.0866333,20.674352 15.7860626,17.7984862 C14.1780746,19.7864318 11.7321631,20.9258257 9.16045383,20.8850816 C7.43777968,20.9782952 2.76871498,19.9166557 3.0089343,14.9938242 C2.84074109,10.9816432 6.6132824,8.48937464 10.5150606,8.6999732 C11.2663413,8.70226587 12.8009803,8.73888317 15.4877065,9.35731583 L15.4877065,7.72021497 C15.7723717,4.94699545 13.9321012,2.79528734 10.7457559,3.11796495 C10.4917795,3.11901303 8.69284628,3.06549545 5.89480704,4.17757377 C5.11588001,4.5319558 5.01640593,4.4730668 4.75727065,4.4730668 C3.97318473,4.4730668 4.29581409,2.2218566 4.44621573,1.93684436 C4.99762226,1.26613871 8.24097997,0.0136176752 11.4242167,0.0313040241 C13.5525255,-0.154992185 15.6695906,0.495472427 17.3173946,1.84238616 C18.6711416,3.34212305 19.3467585,5.32489378 19.1873619,7.33026373 L19.1863036,14.5923441 Z" id="Fill-1" fill="#231916"></path>
                <path d="M61.4489797,31.9599153 C54.0115489,37.8589793 43.2148051,40.9988404 33.9963257,40.9988404 C21.5577275,41.086734 9.53817231,36.1751719 0.30077526,27.2289877 C-0.392806139,26.5570616 0.219130593,25.6367808 1.0623275,26.1488162 C11.3093969,32.4435082 22.9112368,35.7513866 34.7163918,35.7431889 C43.5321572,35.6922918 52.2518076,33.7718205 60.3742571,30.0917667 C61.6252791,29.521492 62.6863279,30.9813952 61.4489797,31.9599153" id="Fill-3" fill="#F2951B"></path>
                <path d="M64.5043299,29.4744445 C63.5324285,28.2080339 58.0739571,28.8830453 55.6301701,29.1787449 C54.893651,29.2633189 54.768977,28.6159263 55.4360067,28.1376816 C59.782581,25.0410113 66.9209314,25.9281788 67.7409732,26.9692421 C68.5597948,28.0102367 67.5185396,35.2587249 63.449787,38.7212411 C62.8251288,39.2566471 62.227385,38.9741385 62.5052067,38.2706839 C63.4207032,35.9347668 65.4762314,30.7417483 64.5043299,29.4744445" id="Fill-5" fill="#F2951B"></path>
            </g>
        </g>
    </g>
</svg>