<?xml version="1.0" encoding="UTF-8"?>
<svg width="68px" height="56px" viewBox="0 0 68 56" version="1.1" xmlns="http://www.w3.org/2000/svg" xmlns:xlink="http://www.w3.org/1999/xlink">
    <!-- Generator: Sketch 64 (93537) - https://sketch.com -->
    <title>编组</title>
    <desc>Created with Sketch.</desc>
    <defs>
        <polygon id="path-1" points="0.000348717949 0.19425 67.9755897 0.19425 67.9755897 55.1249125 0.000348717949 55.1249125"></polygon>
    </defs>
    <g id="页面-1" stroke="none" stroke-width="1" fill="none" fill-rule="evenodd">
        <g id="信•云帆介绍" transform="translate(-27.000000, -98.000000)">
            <g id="编组" transform="translate(27.000000, 98.000000)">
                <path d="M37.5009538,30.7804 C30.8875179,29.967525 22.3517744,33.6469 18.3022872,35.64715 C18.3057744,35.71715 18.3127487,35.786275 18.3179795,35.8554 C21.6831077,34.636525 28.3741333,33.0274 36.4835692,35.3584 C41.967159,36.93515 46.4752103,36.124025 49.5709538,34.745025 C52.6658256,33.36515 53.9334154,32.41665 53.930804,32.410525" id="Fill-1" fill="#ffffff"></path>
                <path d="M33.1411077,23.8256375 C27.0306974,25.3673875 20.7468,31.5282625 17.8533128,34.6756375 C17.8803385,34.7360125 17.9091077,34.7946375 17.9378769,34.8541375 C20.4931077,32.6298875 25.851159,28.9251375 33.7949538,28.2128875 C39.1669538,27.7307625 42.8694667,25.4767625 45.1326462,23.2026375 C47.3958256,20.9276375 48.1917744,19.6580125 48.1882986,19.6536375" id="Fill-3" fill="#ffffff"></path>
                <path d="M27.7656205,19.0029 C23.0553128,22.2334 19.6396205,29.444275 18.1619282,33.028275 C18.2037744,33.07115 18.2473641,33.1114 18.2892103,33.1534 C19.7669026,30.46015 23.1634154,25.627525 29.6905436,22.524775 C34.104441,20.42565 36.5463385,17.346525 37.7598769,14.70315 C38.9716718,12.0589 39.2532615,10.729775 39.2481018,10.72715" id="Fill-5" fill="#ffffff"></path>
                <path d="M8.59554872,39.0527375 C9.08113846,43.7401125 13.1593949,47.2287375 17.8557538,47.2287375 L51.4285744,47.2287375 L51.8540103,47.2164875 C56.1022667,47.1027375 59.4307795,43.6779875 59.4307795,39.4193625 L8.59554872,39.0527375 Z" id="Fill-7" fill="#ffffff"></path>
                <g transform="translate(0.000000, 0.680575)">
                    <mask id="mask-2" fill="white">
                        <use xlink:href="#path-1"></use>
                    </mask>
                    <g id="Clip-10"></g>
                    <path d="M53.3550667,23.5872875 C54.9173231,22.5425375 57.3627077,23.2197875 57.3627077,23.2197875 C57.3627077,23.2241625 57.3653231,23.2294125 57.3696821,23.2311625 C63.7913231,25.4335375 67.9829128,31.5314125 67.9759472,38.7387875 C67.9759472,47.6480375 60.8969641,54.8737875 52.0813744,55.1100375 L52.0813744,55.1249125 L17.6541949,55.1249125 C7.90491282,55.1249125 0.000348717949,47.1982875 0.000348717949,37.4061625 C0.000348717949,29.1216625 5.6818359,22.1776625 13.3370667,20.2430375 C14.3919385,8.9966625 23.8221436,0.1941625 35.308041,0.1941625 C44.9614256,0.1941625 53.1589128,6.4136625 56.1561436,15.0761625 C56.1561436,15.0761625 56.7829641,16.7622875 54.7874256,17.6399125 C52.2086564,18.7730375 50.2776308,15.0761625 50.2776308,15.0761625 C47.5802974,9.5032875 41.8839897,5.6524125 35.308041,5.6524125 C31.1399897,5.6524125 27.1524,7.2064125 24.0828103,10.0274125 C21.0306564,12.8317875 19.1371179,16.6415375 18.7517846,20.7549125 L18.3917333,24.5944125 L14.6648103,25.5359125 C8.81855385,27.0137875 4.87019487,32.5534125 5.50486154,38.7002875 C6.15347692,44.9792875 11.5865026,49.6666625 17.8765026,49.6666625 L51.4885538,49.6666625 L51.9366564,49.6544125 C54.7865538,49.5774125 57.4525026,48.4084125 59.4445538,46.3626625 C61.4392205,44.3134125 62.5376821,41.6061625 62.5376821,38.7387875 C62.5429128,33.8965375 59.6424513,29.4672875 55.606041,28.3936625 C51.6942974,27.3200375 52.112759,24.4185375 53.3550667,23.5872875" id="Fill-9" fill="#FFFFFF" mask="url(#mask-2)"></path>
                </g>
            </g>
        </g>
    </g>
</svg>