<?xml version="1.0" encoding="UTF-8"?>
<svg width="60px" height="68px" viewBox="0 0 60 68" version="1.1" xmlns="http://www.w3.org/2000/svg" xmlns:xlink="http://www.w3.org/1999/xlink">
    <!-- Generator: Sketch 64 (93537) - https://sketch.com -->
    <title>编组 4</title>
    <desc>Created with Sketch.</desc>
    <g id="页面-1" stroke="none" stroke-width="1" fill="none" fill-rule="evenodd">
        <g id="信·仓归介绍" transform="translate(-27.000000, -86.000000)">
            <g id="编组-4" transform="translate(27.000000, 86.000000)">
                <path d="M29.8174286,-5.43565193e-14 L-3.65421978e-14,17.17595 L-3.65421978e-14,50.898 L29.6074286,67.86145 L59.4214286,50.9048 L59.64,17.17935 L29.8174286,-5.43565193e-14 Z M3.49457143,48.8971 L3.49457143,19.17005 L29.8174286,4.0069 L56.1334286,19.16665 L55.9397143,48.8903 L29.6142857,63.86305 L3.49457143,48.8971 Z" id="Fill-1" fill="#FFFFFF"></path>
                <path d="M16.7246645,41.576305 L16.6955143,52.139255 C16.6963714,52.351755 16.5240857,52.524305 16.3098,52.525155 C16.2403714,52.525155 16.1718,52.506455 16.1118,52.471605 L6.83922857,47.162505 C6.71751429,47.094505 6.64294286,46.966155 6.64544986,46.827605 L6.6738,36.264655 C6.6738,35.966305 7.00122857,35.783555 7.25837143,35.932305 L16.5309429,41.240555 C16.6518,41.310255 16.7255143,41.438605 16.7246645,41.576305" id="Fill-2" fill="#FFFFFF"></path>
                <path d="M16.7652931,27.834355 L16.7361429,38.397305 C16.737,38.609805 16.5647143,38.782355 16.3504286,38.783205 C16.281,38.783205 16.2124286,38.764505 16.1524286,38.729655 L6.87985714,33.420555 C6.75814286,33.352555 6.68357143,33.224205 6.68607843,33.085655 L6.71442857,22.522705 C6.71442857,22.224355 7.041,22.041605 7.299,22.190355 L16.5715714,27.498605 C16.6924286,27.568305 16.7661429,27.695805 16.7652931,27.834355" id="Fill-4" fill="#FFFFFF"></path>
                <path d="M28.7870571,48.481705 L28.7579143,59.044655 C28.7587714,59.257155 28.5864857,59.429705 28.3722,59.430555 C28.3027714,59.430555 28.2342,59.411855 28.1742,59.377005 L18.9016286,54.067905 C18.7799143,53.999905 18.7053429,53.871555 18.7078499,53.733005 L18.7362,43.170055 C18.7362,42.871705 19.0636286,42.688955 19.3207714,42.836855 L28.5933429,48.145955 C28.7133429,48.216505 28.7870571,48.344005 28.7870571,48.481705" id="Fill-6" fill="#FFFFFF"></path>
                <path d="M42.9131926,41.576305 L42.9423429,52.139255 C42.9423429,52.436755 43.2689143,52.620355 43.5260571,52.471605 L52.7994857,47.162505 C52.9203429,47.094505 52.9949143,46.966155 52.9924073,46.827605 L52.9640571,36.264655 C52.9649143,36.053005 52.7917714,35.880455 52.5783429,35.879576 C52.5080571,35.878755 52.4403429,35.896605 52.3794857,35.932305 L43.1069143,41.240555 C42.9860571,41.310255 42.9123429,41.438605 42.9131926,41.576305" id="Fill-8" fill="#FFFFFF"></path>
                <path d="M42.8729926,27.834355 L42.9021429,38.397305 C42.9021429,38.694805 43.2287143,38.878405 43.4858571,38.729655 L52.7584286,33.420555 C52.8801429,33.352555 52.9547143,33.224205 52.9522073,33.085655 L52.9238571,22.522705 C52.9247143,22.310205 52.7515714,22.137655 52.5372857,22.136805 C52.4678571,22.136805 52.3992857,22.155505 52.3392857,22.190355 L43.0667143,27.498605 C42.9458571,27.568305 42.8721429,27.695805 42.8729926,27.834355" id="Fill-10" fill="#ffffff"></path>
                <path d="M30.8508,48.481705 L30.8799429,59.044655 C30.8799429,59.342155 31.2065143,59.525755 31.4636571,59.377005 L40.7370857,54.067905 C40.8579429,53.999905 40.9325143,53.871555 40.9300073,53.733005 L40.9016571,43.170055 C40.9025143,42.957555 40.7293714,42.785005 40.5159429,42.784155 C40.4456571,42.784155 40.3779429,42.802005 40.3170857,42.836855 L31.0445143,48.145955 C30.9245143,48.216505 30.8508,48.344005 30.8508,48.481705" id="Fill-12" fill="#FFFFFF"></path>
                <path d="M30.0677143,18.92848 L39.2768571,13.61938 C39.4628571,13.51143 39.5254286,13.27428 39.4165714,13.08983 C39.3831429,13.03288 39.3351429,12.98528 39.2768571,12.95128 L30.0042857,7.64303 C29.8834286,7.57418 29.7342857,7.57418 29.6134286,7.64303 L20.4042857,12.95128 C20.2182857,13.06008 20.1557143,13.29723 20.2645714,13.48083 C20.2988571,13.53863 20.3468571,13.58623 20.4042857,13.61938 L29.6768571,18.92848 C29.7977143,19.00073 29.9477143,19.00073 30.0677143,18.92848" id="Fill-14" fill="#FFFFFF"></path>
                <path d="M18.0832286,25.836345 L27.2923714,20.527245 C27.4783714,20.419295 27.5409429,20.182995 27.4320857,19.998545 C27.3986571,19.940745 27.3506571,19.893145 27.2923714,19.859995 L18.0198,14.550895 C17.8989429,14.482895 17.7506571,14.482895 17.6298,14.550895 L8.42065714,19.859995 C8.2338,19.967945 8.17208571,20.205095 8.28008571,20.389545 C8.31437143,20.446495 8.36237143,20.494095 8.42065714,20.527245 L17.6932286,25.836345 C17.8140857,25.905195 17.9623714,25.905195 18.0832286,25.836345" id="Fill-16" fill="#FFFFFF"></path>
                <path d="M41.9652,26.040175 L51.5069143,20.542375 C51.6997714,20.430175 51.7657714,20.184525 51.6534857,19.993275 C51.6183429,19.932925 51.5677714,19.883625 51.5069143,19.848775 L41.8983429,14.347575 C41.7732,14.276175 41.6189143,14.276175 41.4937714,14.347575 L31.9520571,19.845375 C31.7592,19.956725 31.6940571,20.202375 31.8054857,20.394475 C31.8414857,20.453975 31.8920571,20.504125 31.9520571,20.538975 L41.5606286,26.040175 C41.6857714,26.111575 41.8400571,26.111575 41.9652,26.040175" id="Fill-18" fill="#ffffff"></path>
                <path d="M40.936036,27.834355 L40.9068857,38.397305 C40.9077429,38.609805 40.7354571,38.782355 40.5211714,38.783205 C40.4517429,38.783205 40.3831714,38.764505 40.3231714,38.729655 L31.0506,33.420555 C30.9288857,33.352555 30.8543143,33.224205 30.8568213,33.085655 L30.8851714,22.522705 C30.8851714,22.224355 31.2126,22.041605 31.4697429,22.190355 L40.7423143,27.498605 C40.8631714,27.568305 40.9368857,27.695805 40.936036,27.834355" id="Fill-20" fill="#ffffff"></path>
                <path d="M18.7018212,27.834355 L18.7309714,38.397305 C18.7309714,38.694805 19.0575429,38.878405 19.3146857,38.729655 L28.5881143,33.420555 C28.7089714,33.352555 28.7835429,33.224205 28.7810359,33.085655 L28.7526857,22.522705 C28.7535429,22.310205 28.5804,22.137655 28.3661143,22.136805 C28.2966857,22.136805 28.2289714,22.155505 28.1681143,22.190355 L18.8955429,27.498605 C18.7746857,27.568305 18.7009714,27.695805 18.7018212,27.834355" id="Fill-22" fill="#FFFFFF"></path>
                <path d="M30.0677143,46.33435 L39.2768571,41.0261 C39.4628571,40.91815 39.5254286,40.681 39.4165714,40.49655 C39.3831429,40.43875 39.3351429,40.392 39.2768571,40.358 L30.0042857,35.04975 C29.8834286,34.9809 29.7342857,34.9809 29.6134286,35.04975 L20.4042857,40.358 C20.2182857,40.46595 20.1557143,40.7031 20.2645714,40.88755 C20.2988571,40.9445 20.3468571,40.99295 20.4042857,41.0261 L29.6768571,46.33435 C29.7985714,46.4032 29.9468571,46.4032 30.0677143,46.33435" id="Fill-24" fill="#FFFFFF"></path>
            </g>
        </g>
    </g>
</svg>