<?xml version="1.0" encoding="UTF-8"?>
<svg width="68px" height="56px" viewBox="0 0 68 56" version="1.1" xmlns="http://www.w3.org/2000/svg" xmlns:xlink="http://www.w3.org/1999/xlink">
    <!-- Generator: Sketch 64 (93537) - https://sketch.com -->
    <title>编组</title>
    <desc>Created with Sketch.</desc>
    <defs>
        <polygon id="path-1" points="0 0.19425 67.9753392 0.19425 67.9753392 55.1249125 0 55.1249125"></polygon>
    </defs>
    <g id="页面-1" stroke="none" stroke-width="1" fill="none" fill-rule="evenodd">
        <g id="信·云昇介绍" transform="translate(-27.000000, -98.000000)">
            <g id="编组" transform="translate(27.000000, 98.000000)">
                <path d="M40.0336051,22.2158125 C34.8882718,18.6991875 26.5251436,18.5819375 22.4643231,18.7648125 C22.4425282,18.8313125 22.4224769,18.8978125 22.4015538,18.9651875 C25.6149897,19.2285625 31.7062205,20.5139375 37.5298103,26.0728125 C41.4677077,29.8318125 45.4718615,30.9535625 48.5205282,30.9535625 C51.5700667,30.9535625 52.9579641,30.5948125 52.9588359,30.5878125" id="Fill-1" fill="#ffffff"></path>
                <path d="M21.8012359,22.1949 L21.2799026,27.753775 C21.2790308,27.75815 21.2755436,27.762525 21.2711846,27.764275 L15.4231846,29.241275 C11.0650821,30.342025 8.12103077,34.472025 8.59528718,39.05265 C9.08087692,43.7409 13.1591333,47.22865 17.8563641,47.22865 L51.427441,47.22865 L51.8537487,47.2164 C56.1020051,47.10265 59.4296536,43.6779 59.4296536,39.419275 C59.4331333,36.542275 58.2143641,34.136025 56.1586718,32.786775 C56.1551846,32.78415 56.1508256,32.78415 56.1473385,32.7859 C47.1818,37.114525 38.9930308,32.06665 36.0777487,29.44515 C30.8112359,24.7079 25.7164667,22.84065 21.8143128,22.1843042 C21.8073385,22.183525 21.8012359,22.188775 21.8012359,22.1949" id="Fill-3" fill="#ffffff"></path>
                <g transform="translate(0.000000, 0.680575)">
                    <mask id="mask-2" fill="white">
                        <use xlink:href="#path-1"></use>
                    </mask>
                    <g id="Clip-6"></g>
                    <path d="M53.3544564,23.5872875 C54.9167128,22.5425375 57.3620974,23.2197875 57.3620974,23.2197875 C57.3620974,23.2241625 57.3655846,23.2294125 57.3690718,23.2311625 C63.7915846,25.4335375 67.9831744,31.5314125 67.9753392,38.7387875 C67.9753392,47.6480375 60.8972256,54.8737875 52.0816359,55.1100375 L52.0816359,55.1249125 L17.6535846,55.1249125 C7.90517436,55.1249125 -0.000261538462,47.1982875 -0.000261538462,37.4061625 C-0.000261538462,29.1216625 5.68209744,22.1776625 13.3373282,20.2430375 C14.3922,8.9966625 23.8224051,0.1941625 35.3074308,0.1941625 C44.9616872,0.1941625 53.1591744,6.4136625 56.1564051,15.0761625 C56.1564051,15.0761625 56.7832256,16.7622875 54.7868154,17.6399125 C52.2089179,18.7730375 50.2778923,15.0761625 50.2778923,15.0761625 C47.580559,9.5032875 41.8842513,5.6524125 35.3074308,5.6524125 C31.1393795,5.6524125 27.1526615,7.2064125 24.0822,10.0274125 C21.0300462,12.8317875 19.1365077,16.6415375 18.7511744,20.7549125 L18.3911231,24.5944125 L14.6650718,25.5359125 C8.81881538,27.0137875 4.86958462,32.5534125 5.50512308,38.7002875 C6.15373846,44.9792875 11.5867641,49.6666625 17.8758923,49.6666625 L51.4888154,49.6666625 L51.9369179,49.6544125 C54.7868154,49.5774125 57.4527641,48.4084125 59.4448154,46.3626625 C61.4386103,44.3134125 62.5370718,41.6061625 62.5370718,38.7387875 C62.5423026,33.8965375 59.641841,29.4672875 55.6054308,28.3936625 C51.6936872,27.3200375 52.1130205,24.4185375 53.3544564,23.5872875" id="Fill-5" fill="#FFFFFF" mask="url(#mask-2)"></path>
                </g>
            </g>
        </g>
    </g>
</svg>