<?xml version="1.0" encoding="UTF-8"?>
<svg width="61px" height="72px" viewBox="0 0 61 72" version="1.1" xmlns="http://www.w3.org/2000/svg" xmlns:xlink="http://www.w3.org/1999/xlink">
    <!-- Generator: Sketch 64 (93537) - https://sketch.com -->
    <title>编组</title>
    <desc>Created with Sketch.</desc>
    <defs>
        <polygon id="path-1" points="0 0.275668966 60.8390095 0.275668966 60.8390095 71.1724138 0 71.1724138"></polygon>
    </defs>
    <g id="页面-1" stroke="none" stroke-width="1" fill="none" fill-rule="evenodd">
        <g id="信·储思介绍" transform="translate(-27.000000, -52.000000)">
            <g id="编组" transform="translate(27.000000, 52.000000)">
                <mask id="mask-2" fill="white">
                    <use xlink:href="#path-1"></use>
                </mask>
                <g id="Clip-3"></g>
                <path d="M57.0743203,44.3719448 L57.0743203,23.6773241 C57.0743203,22.6478069 56.2532932,21.8136 55.2401986,21.8136 C54.2262797,21.8136 53.4052527,22.6478069 53.4052527,23.6773241 L53.4052527,44.3719448 L49.6405635,46.5799448 L49.6405635,51.1804966 L34.1844824,60.2450483 L30.4197932,58.0370483 L26.6551041,60.2450483 L11.199023,51.1804966 L11.199023,46.5799448 L7.43350946,44.3719448 L7.43350946,34.4152552 L29.7257122,46.8729103 C30.2887257,47.1857379 30.9704419,47.1816 31.5268608,46.8538759 L44.5289284,39.2293241 C45.0960635,38.8966345 45.4464014,38.2817379 45.4464014,37.615531 L45.4464014,33.5479448 L49.1459689,31.3780138 L49.1459689,24.8102897 L43.5463338,21.5264276 L38.7124959,24.3609103 L31.7766311,20.2941517 C30.9003743,19.7785655 29.7784689,20.0864276 29.2706851,20.9752552 C28.7637257,21.8665655 29.0646041,23.0061517 29.9425095,23.5209103 L37.9466986,28.2158069 L37.9466986,31.3780138 L41.7773338,33.6249103 L41.7773338,36.539669 L30.5887797,43.1024276 L6.48388784,29.6301517 C5.91427973,29.3131862 5.22349595,29.3239448 4.6662527,29.6591172 C4.10818514,29.9934621 3.76526622,30.6042207 3.76526622,31.2629793 L3.76526622,44.3719448 L-0.000247297297,46.5799448 L-0.000247297297,53.147669 L5.59938784,56.431531 L9.20827973,54.3162207 L24.8201581,63.4718069 L24.8201581,67.8886345 L30.4197932,71.1724966 L36.0194284,67.8886345 L36.0194284,63.4718069 L51.6313068,54.3162207 L55.2401986,56.431531 L60.8390095,53.147669 L60.8390095,46.5799448 L57.0743203,44.3719448 Z M8.84063108,24.9923586 L29.8369959,37.3258759 C30.1255095,37.495531 30.4412257,37.5774621 30.7528203,37.5774621 C31.3867257,37.5774621 32.0024959,37.2431172 32.3429419,36.6464276 C32.8507257,35.7551172 32.5506716,34.615531 31.6735905,34.1007724 L11.199023,22.0726345 L11.199023,19.8033931 L26.2586041,10.9713931 L30.4197932,13.4119448 L34.5809824,10.9713931 L44.6443338,16.8729103 C45.5238878,17.3893241 46.6433203,17.0814621 47.1494554,16.1909793 C47.6572392,15.299669 47.3555365,14.1600828 46.4784554,13.6461517 L36.0194284,7.51125517 L36.0194284,3.56035862 L30.4197932,0.275668966 L24.8201581,3.56035862 L24.8201581,7.51125517 L9.88505,16.2704276 L5.59938784,13.7570483 L-0.000247297297,17.0417379 L-0.000247297297,23.6094621 L5.59938784,26.8933241 L8.84063108,24.9923586 Z M48.587077,44.0707034 C49.0940365,44.9620138 48.7931581,46.1016 47.916077,46.6163586 L31.3372662,56.339669 C31.0536986,56.5060138 30.7363338,56.5896 30.4197932,56.5896 C30.1032527,56.5896 29.7858878,56.5060138 29.5031446,56.339669 L12.9226851,46.6163586 C12.0456041,46.1016 11.7447257,44.9620138 12.2516851,44.0707034 C12.7594689,43.1810483 13.8797257,42.8740138 14.7576311,43.3896 L30.4197932,52.5741517 L46.0819554,43.3896 C46.9606851,42.8740138 48.0809419,43.1802207 48.587077,44.0707034 L48.587077,44.0707034 Z" id="Fill-2" fill="#ffffff" mask="url(#mask-2)"></path>
            </g>
        </g>
    </g>
</svg>