<?xml version="1.0" encoding="UTF-8"?>
<svg width="51px" height="51px" viewBox="0 0 51 51" version="1.1" xmlns="http://www.w3.org/2000/svg" xmlns:xlink="http://www.w3.org/1999/xlink">
    <!-- Generator: Sketch 64 (93537) - https://sketch.com -->
    <title>编组</title>
    <desc>Created with Sketch.</desc>
    <defs>
        <polygon id="path-1" points="0 0.03984375 50.9610256 0.03984375 50.9610256 50.9999512 0 50.9999512"></polygon>
        <polygon id="path-3" points="0 0.03984375 50.9610256 0.03984375 50.9610256 50.9999512 0 50.9999512"></polygon>
    </defs>
    <g id="页面-1" stroke="none" stroke-width="1" fill="none" fill-rule="evenodd">
        <g id="iPhone-8" transform="translate(-254.000000, -865.000000)">
            <g id="编组" transform="translate(254.000000, 865.000000)">
                <g>
                    <mask id="mask-2" fill="white">
                        <use xlink:href="#path-1"></use>
                    </mask>
                    <g id="Clip-2"></g>
                    <path d="M22.584075,0.201971591 C18.6295466,0.649815341 14.7838278,2.03884091 11.4653506,4.23865057 C7.13556648,7.08117614 3.70943864,11.2765057 1.79998125,16.0929631 C0.306057955,19.8337841 -0.269430682,23.9336335 0.116546591,27.9419148 C0.530776705,32.4787415 2.21015455,36.8905313 4.90880795,40.5613722 C7.61296705,44.2632188 11.333504,47.2133949 15.5570864,48.9963665 C19.0100182,50.4605881 22.7925665,51.1369176 26.5387483,50.9769631 C32.1539642,50.7684716 37.6696432,48.614446 41.9442256,44.9664972 C46.2080864,41.3762131 49.2349074,36.3473523 50.3925494,30.8933949 C51.8085239,24.3787244 50.5539528,17.324642 46.9126688,11.7323182 C44.2099585,7.52626705 40.2432597,4.1459233 35.6580409,2.1557642 C31.5731148,0.364678977 27.0119472,-0.299480114 22.584075,0.201971591" id="Fill-1" fill="#B81147" mask="url(#mask-2)"></path>
                </g>
                <g>
                    <mask id="mask-4" fill="white">
                        <use xlink:href="#path-3"></use>
                    </mask>
                    <g id="Clip-4"></g>
                    <path d="M22.584075,0.201971591 C18.6295466,0.649815341 14.7838278,2.03884091 11.4653506,4.23865057 C7.13556648,7.08117614 3.70943864,11.2765057 1.79998125,16.0929631 C0.306057955,19.8337841 -0.269430682,23.9336335 0.116546591,27.9419148 C0.530776705,32.4787415 2.21015455,36.8905313 4.90880795,40.5613722 C7.61296705,44.2632188 11.333504,47.2133949 15.5570864,48.9963665 C19.0100182,50.4605881 22.7925665,51.1369176 26.5387483,50.9769631 C32.1539642,50.7684716 37.6696432,48.614446 41.9442256,44.9664972 C46.2080864,41.3762131 49.2349074,36.3473523 50.3925494,30.8933949 C51.8085239,24.3787244 50.5539528,17.324642 46.9126688,11.7323182 C44.2099585,7.52626705 40.2432597,4.1459233 35.6580409,2.1557642 C31.5731148,0.364678977 27.0119472,-0.299480114 22.584075,0.201971591 Z" id="Stroke-3" mask="url(#mask-4)"></path>
                </g>
                <path d="M31.3358702,7 C34.3710742,7.17319076 37.4065692,7.40215483 40.4170363,7.83806717 C42.0818222,8.08611157 43.7188156,8.51028217 45.3949512,8.67760206 C45.8125664,9.23973819 46.2665593,9.79453572 46.6376111,10.3816231 C46.2943518,11.715779 46.1399651,13.0895634 45.8519998,14.4354611 C41.3950125,13.8278257 36.9016476,13.5489592 32.4097379,13.3654944 C31.9848471,14.6820378 31.5961885,16.0103229 31.1698427,17.3268663 C35.0025898,17.5602335 38.9124575,18.1487885 42.3888494,19.8792284 C44.3094428,20.8596643 46.0702656,22.2510613 47.251811,24.0857092 C48.440632,25.8880673 49.0183087,28.0661614 48.9979372,30.2235605 C49.0474108,33.1004353 48.2076696,36.0446783 46.4004289,38.3005614 C44.2077309,41.0672104 40.9452395,42.8108598 37.5621199,43.60196 C35.592053,44.0789685 33.5460295,44.0510818 31.5381298,43.9087131 C29.604295,43.7340547 27.6586739,43.4889457 25.8021051,42.8989229 C25.564923,42.7873763 25.2244283,42.7594897 25.1152955,42.4835586 C24.4181546,40.8793425 23.7314904,39.2707232 23.0576312,37.656233 C22.9368575,37.3714956 23.0096127,37.0280495 23.2411199,36.8255044 C23.9787128,36.093113 24.7296926,35.3753987 25.468886,34.6430072 C25.682641,34.4375267 25.8950863,34.2144335 26.1775223,34.1058223 C26.4058283,34.0396282 26.5529394,34.2687391 26.6604717,34.4301881 C27.6106554,35.9140513 28.579901,37.3876405 29.5459453,38.8612298 C30.1717861,39.8284561 30.9995954,40.6914745 32.0357758,41.2066437 C33.2739249,41.8318917 34.6957082,41.9742604 36.0619064,41.887665 C38.3056787,41.7232805 40.4766956,40.3377544 41.422514,38.2506589 C42.0454446,36.947325 42.0032465,35.3856727 41.4705325,34.0588553 C40.9437844,32.7364411 39.8991644,31.6943611 38.7363898,30.9194058 C37.2188606,29.912551 35.4974711,29.2652872 33.7584749,28.7647953 C30.7827847,27.9267281 27.7096025,27.5128315 24.6393305,27.2339651 C26.8714619,20.4897993 29.0819123,13.7368272 31.3358702,7" id="Fill-5" fill="#FEFEFE"></path>
                <path d="M31.3358702,7 C34.3710742,7.17319076 37.4065692,7.40215483 40.4170363,7.83806717 C42.0818222,8.08611157 43.7188156,8.51028217 45.3949512,8.67760206 C45.8125664,9.23973819 46.2665593,9.79453572 46.6376111,10.3816231 C46.2943518,11.715779 46.1399651,13.0895634 45.8519998,14.4354611 C41.3950125,13.8278257 36.9016476,13.5489592 32.4097379,13.3654944 C31.9848471,14.6820378 31.5961885,16.0103229 31.1698427,17.3268663 C35.0025898,17.5602335 38.9124575,18.1487885 42.3888494,19.8792284 C44.3094428,20.8596643 46.0702656,22.2510613 47.251811,24.0857092 C48.440632,25.8880673 49.0183087,28.0661614 48.9979372,30.2235605 C49.0474108,33.1004353 48.2076696,36.0446783 46.4004289,38.3005614 C44.2077309,41.0672104 40.9452395,42.8108598 37.5621199,43.60196 C35.592053,44.0789685 33.5460295,44.0510818 31.5381298,43.9087131 C29.604295,43.7340547 27.6586739,43.4889457 25.8021051,42.8989229 C25.564923,42.7873763 25.2244283,42.7594897 25.1152955,42.4835586 C24.4181546,40.8793425 23.7314904,39.2707232 23.0576312,37.656233 C22.9368575,37.3714956 23.0096127,37.0280495 23.2411199,36.8255044 C23.9787128,36.093113 24.7296926,35.3753987 25.468886,34.6430072 C25.682641,34.4375267 25.8950863,34.2144335 26.1775223,34.1058223 C26.4058283,34.0396282 26.5529394,34.2687391 26.6604717,34.4301881 C27.6106554,35.9140513 28.579901,37.3876405 29.5459453,38.8612298 C30.1717861,39.8284561 30.9995954,40.6914745 32.0357758,41.2066437 C33.2739249,41.8318917 34.6957082,41.9742604 36.0619064,41.887665 C38.3056787,41.7232805 40.4766956,40.3377544 41.422514,38.2506589 C42.0454446,36.947325 42.0032465,35.3856727 41.4705325,34.0588553 C40.9437844,32.7364411 39.8991644,31.6943611 38.7363898,30.9194058 C37.2188606,29.912551 35.4974711,29.2652872 33.7584749,28.7647953 C30.7827847,27.9267281 27.7096025,27.5128315 24.6393305,27.2339651 C26.8714619,20.4897993 29.0819123,13.7368272 31.3358702,7 Z" id="Stroke-7"></path>
                <path d="M12.9943503,8.44729487 C15.8940955,6.86717464 19.1803782,6.04073975 22.4652346,6 C23.3752383,6.02327986 24.3879383,6.03346479 25.1367657,6.64165103 C26.0296533,7.33422675 26.9282462,8.01807252 27.8068704,8.72956312 C28.096417,8.92307692 28.0293792,9.36102921 27.8097231,9.58364284 C27.3190628,10.1583643 26.8526503,10.7549106 26.3420213,11.3107172 C25.7615017,11.66137 25.1239287,11.2234177 24.601889,10.9600643 C22.7476496,10.04342 20.854899,8.96236168 18.7424925,8.911437 C17.8125201,8.89252211 17.0294605,9.61419765 16.6828604,10.4493625 C16.4061508,11.0706436 16.4132825,11.7646744 16.3776241,12.4310602 C16.259238,14.414213 16.1836421,16.4002757 16.1208832,18.3848834 C18.9764119,18.3106789 21.8319406,18.281579 24.6888956,18.2495692 C24.7003063,18.9261401 24.6931746,19.6027109 24.6931746,20.2778267 C23.7460862,20.717234 22.8104084,21.1828311 21.859041,21.6091435 C19.9277793,21.6673431 17.9908123,21.6411533 16.0581244,21.6949879 C15.9254749,26.9022552 16.035303,32.115488 16.2349903,37.3186813 C16.3034545,38.4171995 16.2606644,39.5404526 16.5373739,40.6127809 C16.6714497,41.1962323 17.276217,41.4390703 17.774009,41.6151242 C19.094798,42.0284872 20.4854775,42.1405215 21.859041,42.219091 C21.8904204,42.8112724 21.9175208,43.4049087 21.9203735,44 C16.8411839,43.8645403 11.7619943,43.4427384 6.75412161,42.5566489 C6.20355514,41.9280928 5.6087722,41.3213616 5.17088643,40.604051 C5.80132783,40.5676762 6.61291415,40.6171459 7.02940484,40.0409695 C7.21340244,39.4895279 7.09786906,38.8842516 7.0579316,38.3153502 C6.49738077,32.8925987 6.32764655,27.428962 6.52162851,21.9801662 C5.34775234,22.0223609 4.17387617,22.0980204 3,22.1591301 C3.03993746,21.1726462 3.11410704,20.1890723 3.16973422,19.2025884 C4.33362603,19.0658192 5.50464952,18.9916147 6.671394,18.8868553 C6.8026171,17.31983 6.76410597,15.6916951 7.384563,14.2177892 C8.42151072,11.6308152 10.6294819,9.74078187 12.9943503,8.44729487" id="Fill-9" fill="#FEFEFE"></path>
                <path d="M12.9943503,8.44729487 C15.8940955,6.86717464 19.1803782,6.04073975 22.4652346,6 C23.3752383,6.02327986 24.3879383,6.03346479 25.1367657,6.64165103 C26.0296533,7.33422675 26.9282462,8.01807252 27.8068704,8.72956312 C28.096417,8.92307692 28.0293792,9.36102921 27.8097231,9.58364284 C27.3190628,10.1583643 26.8526503,10.7549106 26.3420213,11.3107172 C25.7615017,11.66137 25.1239287,11.2234177 24.601889,10.9600643 C22.7476496,10.04342 20.854899,8.96236168 18.7424925,8.911437 C17.8125201,8.89252211 17.0294605,9.61419765 16.6828604,10.4493625 C16.4061508,11.0706436 16.4132825,11.7646744 16.3776241,12.4310602 C16.259238,14.414213 16.1836421,16.4002757 16.1208832,18.3848834 C18.9764119,18.3106789 21.8319406,18.281579 24.6888956,18.2495692 C24.7003063,18.9261401 24.6931746,19.6027109 24.6931746,20.2778267 C23.7460862,20.717234 22.8104084,21.1828311 21.859041,21.6091435 C19.9277793,21.6673431 17.9908123,21.6411533 16.0581244,21.6949879 C15.9254749,26.9022552 16.035303,32.115488 16.2349903,37.3186813 C16.3034545,38.4171995 16.2606644,39.5404526 16.5373739,40.6127809 C16.6714497,41.1962323 17.276217,41.4390703 17.774009,41.6151242 C19.094798,42.0284872 20.4854775,42.1405215 21.859041,42.219091 C21.8904204,42.8112724 21.9175208,43.4049087 21.9203735,44 C16.8411839,43.8645403 11.7619943,43.4427384 6.75412161,42.5566489 C6.20355514,41.9280928 5.6087722,41.3213616 5.17088643,40.604051 C5.80132783,40.5676762 6.61291415,40.6171459 7.02940484,40.0409695 C7.21340244,39.4895279 7.09786906,38.8842516 7.0579316,38.3153502 C6.49738077,32.8925987 6.32764655,27.428962 6.52162851,21.9801662 C5.34775234,22.0223609 4.17387617,22.0980204 3,22.1591301 C3.03993746,21.1726462 3.11410704,20.1890723 3.16973422,19.2025884 C4.33362603,19.0658192 5.50464952,18.9916147 6.671394,18.8868553 C6.8026171,17.31983 6.76410597,15.6916951 7.384563,14.2177892 C8.42151072,11.6308152 10.6294819,9.74078187 12.9943503,8.44729487 Z" id="Stroke-11"></path>
            </g>
        </g>
    </g>
</svg>