<?xml version="1.0" encoding="UTF-8"?>
<svg width="127px" height="30px" viewBox="0 0 127 30" version="1.1" xmlns="http://www.w3.org/2000/svg" xmlns:xlink="http://www.w3.org/1999/xlink">
    <!-- Generator: Sketch 64 (93537) - https://sketch.com -->
    <title>编组</title>
    <desc>Created with Sketch.</desc>
    <defs>
        <polygon id="path-1" points="0.0163670103 0.00793814433 20.9709753 0.00793814433 20.9709753 20.9607928 0.0163670103 20.9607928"></polygon>
    </defs>
    <g id="页面-1" stroke="none" stroke-width="1" fill="none" fill-rule="evenodd">
        <g id="iPhone-8" transform="translate(-28.000000, -767.000000)">
            <g id="编组" transform="translate(28.000000, 767.000000)">
                <path d="M121.751537,16.9359924 C122.7167,16.9359924 123,16.5258214 123,15.7409021 C123,12.4554582 120.859556,9.1285474 117.161945,9.1285474 C113.36385,9.1285474 111.069934,12.3793419 111.069934,16.069826 C111.069934,19.6733703 112.959236,23 117.290648,23 C119.940484,23 122.717263,21.3333116 122.717263,20.2373905 C122.717263,19.5954969 122.31476,19.2398655 121.903531,19.2398655 C121.063622,19.2398655 120.297811,21.077763 117.312603,21.077763 C114.795129,21.077763 113.3179,19.2646753 113.3179,16.9368358 L121.751537,16.9368358 L121.751537,16.9359924 Z M113.317407,15.2549662 C113.391786,13.1772635 114.381718,10.9471171 117.161945,11.0489571 C119.636355,11.0489571 120.75703,13.3043349 120.75703,15.2549662 L113.317407,15.2549662 Z M103.865198,10.3258164 C103.865198,9.58812721 104.295778,9.13128844 104.981582,9.13128844 C105.668652,9.13128844 106.107465,9.58728382 106.107465,10.3258164 L106.107465,11.4769798 L106.159677,11.4769798 C106.665902,10.4281483 107.917181,9.13213183 109.215746,9.13213183 C110.000134,9.13213183 110.463013,9.63999598 110.463013,10.2772509 C110.463013,10.9144356 110.000134,11.3205301 109.058966,11.5003138 C107.733802,11.728452 106.107465,12.7233766 106.107465,15.3479505 L106.107465,21.8011848 C106.107465,22.5394362 105.668652,22.9987349 104.981582,22.9987349 C104.295778,22.9987349 103.865198,22.5394362 103.865198,21.8011848 L103.865198,10.3258164 Z M100.915596,10.2088657 C100.915596,9.42935817 100.300935,9.12798514 99.8690883,9.12798514 C99.408954,9.12798514 98.8301799,9.42935817 98.8301799,10.2088657 L98.8301799,10.9204799 L98.7751524,10.9204799 C97.7327959,9.78006978 96.6363971,9.12798514 95.0788789,9.12798514 C91.2526363,9.12798514 89.1121923,12.4554582 89.1121923,16.0637817 C89.1121923,19.671543 91.2526363,22.999508 95.0788789,22.999508 C96.5349973,22.999508 97.8059079,22.3425739 98.7751524,20.9736038 L98.8301799,20.9736038 L98.8301799,21.9123723 C98.8301799,22.6972916 99.408954,22.999508 99.8690883,22.999508 C100.300935,22.999508 100.915596,22.6980647 100.915596,21.9123723 L100.915596,10.2088657 Z M91.3560768,16.0637817 C91.3560768,13.7548483 92.3251805,11.0483948 95.0788789,11.0483948 C97.8325773,11.0483948 98.8035105,13.754286 98.8035105,16.0637817 C98.8035105,18.3640704 97.8325773,21.0762871 95.0788789,21.0762871 C92.3251805,21.0762871 91.3560768,18.3649841 91.3560768,16.0637817 L91.3560768,16.0637817 Z M69.5590548,10.9883029 C69.4592735,10.6544592 69.3785618,10.3543513 69.3785618,10.1234017 C69.3785618,9.68722608 69.687124,9.12798514 70.4519503,9.12798514 C70.9342504,9.12798514 71.3916403,9.30291925 71.7004137,10.2772509 L74.5772555,19.5449635 L74.6277092,19.5449635 L77.4539566,10.6080725 C77.7626596,9.63718467 77.9619409,9.12798514 78.7827095,9.12798514 C79.5944007,9.12798514 79.7997336,9.63718467 80.1038627,10.6080725 L82.9328545,19.5449635 L82.9847155,19.5449635 L85.8588833,10.2772509 C86.1677271,9.30291925 86.6262429,9.12798514 87.1048838,9.12798514 C87.8719619,9.12798514 88.1737689,9.68645297 88.1737689,10.1226989 C88.1737689,10.3511183 88.0979125,10.6538969 87.9960201,10.9868973 L84.2804659,21.8264163 C83.977322,22.6918095 83.6199245,22.9987349 82.9833785,22.9987349 C82.3687168,22.9987349 81.9902091,22.6918095 81.714227,21.8264163 L78.8093789,12.6679234 L78.7587845,12.6679234 L75.8551326,21.8264163 C75.5757729,22.6918095 75.1972652,22.9987349 74.5860515,22.9987349 C73.9469722,22.9987349 73.5928117,22.6918095 73.2842494,21.8264163 L69.5590548,10.9883029 Z M44.8902575,21.4722608 C44.5302565,22.4177766 44.1503414,22.999508 42.904552,22.999508 C41.6566515,22.999508 41.2781438,22.4169332 40.9208871,21.4722608 L37.228695,11.9835086 C37.0522832,11.5242099 37,11.2466628 37,10.9131002 C37,9.73586184 37.9159057,9.1285474 38.9098492,9.1285474 C39.9276473,9.1285474 40.3636454,9.86433896 40.5375943,10.4249153 L42.8784456,17.6690429 L42.929814,17.6690429 L45.2693282,10.4249153 C45.4493991,9.86433896 45.8806122,9.1285474 46.8979178,9.1285474 L50.5001096,9.1285474 C51.4320592,9.1285474 52.0443987,9.63648184 52.1711309,10.5286528 C53.0699373,9.55790557 54.2471886,9 55.6101401,9 C57.1452111,9 58.4349099,9.63648184 59.4005656,10.857647 C60.4143527,9.68448505 62.0325279,9 63.2886613,9 C66.2756989,9 68.3051732,10.7324029 68.3051732,13.9341399 L68.3051732,20.9648184 C68.3051732,22.1838751 67.5420357,23 66.4792023,23 C65.4103876,23 64.6528091,22.1847185 64.6528091,20.9648184 L64.6528091,14.5754713 C64.6528091,13.0986169 63.8292962,12.0532292 62.4939991,12.0532292 C61.1380139,12.0532292 60.3159787,13.0992495 60.3159787,14.5754713 L60.3159787,20.9648184 C60.3159787,22.1838751 59.5493228,23 58.489656,23 C57.4211931,23 56.6656553,22.1847185 56.6656553,20.9648184 L56.6656553,14.5754713 C56.6656553,13.0986169 55.8392573,12.0532292 54.5045232,12.0532292 C52.9947142,12.0532292 52.3236881,13.0992495 52.3236881,14.5754713 L52.3236881,20.9648184 C52.3236881,22.1838751 51.5633653,23 50.5001096,23 C49.4326319,23 48.6733647,22.1847185 48.6733647,20.9648184 L48.6733647,11.8277617 L44.8902575,21.4722608 Z" id="Fill-1" fill="#5C4835"></path>
                <g transform="translate(5.000000, 0.000000)">
                    <mask id="mask-2" fill="white">
                        <use xlink:href="#path-1"></use>
                    </mask>
                    <g id="Clip-4"></g>
                    <path d="M1.26655258,18.7293082 L1.26655258,2.2365866 C1.2671299,1.97751443 1.37032577,1.72912268 1.5541299,1.54654536 C1.73764536,1.36382371 1.98625361,1.26149381 2.24532577,1.26235434 L18.7415113,1.26235434 C19.2798619,1.26235434 19.7193464,1.69816392 19.7193464,2.2365866 L19.7193464,18.7302464 C19.7193464,19.2728546 19.2798619,19.7114732 18.7415113,19.7114732 L2.24532577,19.7114732 C1.70466598,19.7114732 1.26655258,19.2728546 1.26655258,18.7293082 L1.26655258,18.7293082 Z M2.24532577,0.00791649485 C1.0151299,0.0099371134 0.0183154639,1.00639072 0.0163670103,2.2365866 L0.0163670103,18.7302464 C0.0163670103,19.9612361 1.01397526,20.9597103 2.24532577,20.9607928 L18.7415113,20.9607928 C19.9730784,20.9602876 20.9709753,19.9615247 20.9709753,18.7302464 L20.9709753,2.2365866 C20.9684495,1.00639072 19.9716351,0.0101536082 18.7415113,0.00791649485 L2.24532577,0.00791649485 Z" id="Fill-3" fill="#698DBA" mask="url(#mask-2)"></path>
                </g>
                <path d="M11.1900882,22.874699 L11.1900882,7.12309632 C11.190915,6.60871947 11.6080281,6.19245039 12.1223573,6.19272583 L27.8721997,6.19272583 C28.3889404,6.19272583 28.8041932,6.60823719 28.8041932,7.12309632 L28.8041932,22.8740789 C28.8041932,23.3922451 28.3889404,23.8063784 27.8721997,23.8063784 L12.1223573,23.8063784 C11.8752864,23.8063784 11.6382057,23.7084773 11.4632718,23.5337573 C11.2883379,23.3588306 11.1900882,23.1220353 11.1900882,22.874699 L11.1900882,22.874699 Z M12.1231841,5 C10.9510784,5.00186019 10.0015847,5.95131471 10,7.12309632 L10,22.8740789 C10.0004823,24.0467562 10.9503206,24.9975197 12.1231841,25 L27.8727509,25 C29.0469924,24.9994488 29.9988976,24.0479963 30,22.8740789 L30,7.12309632 C29.9973129,5.95000568 29.04589,5.00027558 27.8727509,5 L12.1231841,5 Z" id="Fill-5" fill="#698DBA"></path>
                <path d="M1.19216204,27.8737761 L1.19216204,12.1249123 C1.19216204,11.6130953 1.60984915,11.1935279 2.12701509,11.1935279 L17.8738121,11.1935279 C18.389118,11.1935279 18.8078385,11.6130953 18.8078385,12.1249123 L18.8078385,27.8737761 C18.8078385,28.388349 18.389118,28.8086053 17.8738121,28.8086053 L2.12653285,28.8086053 C1.61033139,28.8081919 1.19216204,28.3899335 1.19216204,27.8737761 L1.19216204,27.8737761 Z M2.12653285,10 C0.95290304,10.001309 0.00192946016,10.9521217 2.53598108e-07,12.1257391 L2.53598108e-07,27.8743273 C-0.000275056978,28.4382975 0.223621215,28.9793258 0.622501034,29.3781559 C1.02131196,29.776986 1.56245203,30.0006175 2.12653285,30 L17.8729854,30 C18.4369973,30.0003419 18.9779307,29.7764349 19.3767417,29.3778803 C19.7755526,28.9793258 19.9997244,28.4382975 20.0000003,27.8743273 L20.0000003,12.1257391 C19.9970377,10.9523972 19.0462708,10.0021357 17.8729854,10 L2.12653285,10 Z" id="Fill-7" fill="#698DBA"></path>
                <path d="M126.679013,12 L126.591951,10.8003032 C126.578612,10.6387752 126.588149,10.4500227 126.581834,10.2513264 L126.568752,10.2513264 C126.515974,10.4400788 126.452047,10.6535092 126.385027,10.8280734 L125.947979,11.9710778 L125.697363,11.9710778 L125.269917,10.8003032 C125.21469,10.6364105 125.162105,10.4369865 125.109326,10.2513264 L125.09618,10.2513264 C125.091089,10.4417159 125.09618,10.6139154 125.083098,10.7955737 L125.007121,12 L124.694898,12 L124.856841,10 L125.287961,10 L125.698007,11.0805518 C125.750721,11.2332879 125.795702,11.3966955 125.848287,11.5859936 L125.861691,11.5859936 C125.9068,11.3966955 125.954294,11.2249811 126.014483,11.077702 L126.423241,10 L126.839345,10 L127,12 L126.679013,12 Z M124.613572,10 L124.613572,10.2553282 L123.967151,10.2553282 L123.967151,12 L123.642426,12 L123.642426,10.2553282 L123,10.2553282 L123,10 L124.613572,10 Z" id="Fill-9" fill="#5C4835"></path>
            </g>
        </g>
    </g>
</svg>